<?xml version="1.0" encoding="utf-8"?>
<!-- Generator: Adobe Illustrator 27.5.0, SVG Export Plug-In . SVG Version: 6.00 Build 0)  -->
<svg version="1.1" xmlns="http://www.w3.org/2000/svg" xmlns:xlink="http://www.w3.org/1999/xlink" x="0px" y="0px"
	 viewBox="0 0 500 500" style="enable-background:new 0 0 500 500;" xml:space="preserve">
<g id="Background_simple">
	<g>
		<g>
			<path id="XMLID_1_" style="fill:#C6FF00;" d="M409.128,102.962c-24.881-56.73-84.601-78.088-131.722-40.015
				c-18.394,14.862-29.88,38.511-52.41,47.997c-21.134,8.898-47.917,6.271-70.778,11.092
				c-48.675,10.263-114.183,49.005-109.181,108.589c2.193,26.122,19.819,55.138,28.519,79.573
				c10.015,28.127,16.031,63.3,42.473,80.113c45.384,28.858,100.125,5.265,141.049-18.012c21.988-12.506,34.111-20.198,57.798-15.91
				c21.937,3.97,41.685,17.999,63.117,1.393c16.09-12.467,17.416-37.745,30.925-52.582c15.221-16.718,30.658-17.93,38.562-43.062
				c9.588-30.485-4.536-49.536-14.092-76.78C423.882,158.258,420.85,129.689,409.128,102.962z"/>
		</g>
		<g style="opacity:0.7;">
			<path id="XMLID_2_" style="fill:#FFFFFF;" d="M409.128,102.962c-24.881-56.73-84.601-78.088-131.722-40.015
				c-18.394,14.862-29.88,38.511-52.41,47.997c-21.134,8.898-47.917,6.271-70.778,11.092
				c-48.675,10.263-114.183,49.005-109.181,108.589c2.193,26.122,19.819,55.138,28.519,79.573
				c10.015,28.127,16.031,63.3,42.473,80.113c45.384,28.858,100.125,5.265,141.049-18.012c21.988-12.506,34.111-20.198,57.798-15.91
				c21.937,3.97,41.685,17.999,63.117,1.393c16.09-12.467,17.416-37.745,30.925-52.582c15.221-16.718,30.658-17.93,38.562-43.062
				c9.588-30.485-4.536-49.536-14.092-76.78C423.882,158.258,420.85,129.689,409.128,102.962z"/>
		</g>
	</g>
</g>
<g id="Shadow">
	<g>
		<ellipse style="fill:#C6FF00;" cx="219.809" cy="428.053" rx="154.578" ry="9.628"/>
		<ellipse style="opacity:0.8;fill:#FFFFFF;" cx="219.809" cy="428.053" rx="154.578" ry="9.628"/>
	</g>
</g>
<g id="Device">
	<g>
		<path style="fill:#263238;" d="M335.973,428.862H180.538c-10.73,0-19.429-8.699-19.429-19.43V81.292
			c0-10.731,8.699-19.43,19.429-19.43h155.435c10.73,0,19.43,8.699,19.43,19.43v328.141
			C355.403,420.163,346.703,428.862,335.973,428.862z"/>
		
			<rect x="169.744" y="102.16" style="fill:#FFFFFF;stroke:#263238;stroke-width:1.3374;stroke-miterlimit:10;" width="177.023" height="286.404"/>
		<g>
			<g>
				
					<ellipse transform="matrix(0.7071 -0.7071 0.7071 0.7071 -59.4179 238.5575)" style="fill:#C6FF00;" cx="258.255" cy="191.002" rx="38.371" ry="38.371"/>
				<path style="fill:#C6FF00;" d="M308.626,370.548h-100.74c-0.951,0-1.722-0.771-1.722-1.722l0,0c0-0.951,0.771-1.722,1.722-1.722
					h100.74c0.951,0,1.722,0.771,1.722,1.722l0,0C310.348,369.777,309.577,370.548,308.626,370.548z"/>
				<path style="fill:#C6FF00;" d="M311.916,271.602H204.595c-2.212,0-4.006-1.794-4.006-4.006v-12.655
					c0-2.212,1.794-4.006,4.006-4.006h107.322c2.212,0,4.006,1.793,4.006,4.006v12.655
					C315.922,269.808,314.129,271.602,311.916,271.602z"/>
				<path style="fill:#C6FF00;" d="M311.916,310.268H204.595c-2.212,0-4.006-1.793-4.006-4.006v-12.655
					c0-2.212,1.794-4.006,4.006-4.006h107.322c2.212,0,4.006,1.793,4.006,4.006v12.655
					C315.922,308.475,314.129,310.268,311.916,310.268z"/>
			</g>
			<g>
				<path style="fill:#263238;" d="M277.359,210.139l-11.288-6.499v-5.372c1.541-1.799,2.738-4.125,3.469-6.767
					c0.345,0.118,0.746,0.207,1.213,0.207c1.401,0,2.289-4.341,2.434-7.436c1.631-3.452-0.591-5.469-0.591-5.469
					s0.922-0.922,1.536-4.609s-2.151-2.151-4.302-5.531c-2.151-3.38-3.687-7.067-10.754-7.067c-7.067,0-9.218,5.838-9.218,5.838
					s-3.073,0-5.223,0.615c-2.151,0.614-2.765,7.682-0.922,10.447c0.833,1.249,1.162,3.184,1.275,4.934
					c-0.489-0.602-1.002-0.764-1.275,0.596c-0.615,3.073,1.844,7.374,1.844,7.374l1.277-0.365c0.714,2.837,1.973,5.326,3.606,7.231
					v5.372l-11.288,6.499c-2.687,1.547-4.343,4.412-4.343,7.512v3.716c6.485,5.015,14.614,8.007,23.446,8.007
					c8.832,0,16.961-2.992,23.446-8.007v-3.716C281.702,214.551,280.046,211.686,277.359,210.139z"/>
				<g>
					<path style="fill:#263238;" d="M215.202,305.129c-0.26,0-0.492-0.097-0.696-0.291c-0.205-0.195-0.307-0.427-0.307-0.696
						c0-0.18,0.05-0.349,0.15-0.509l1.796-2.888l-3.502,0.119c-0.309,0-0.551-0.092-0.726-0.276
						c-0.175-0.185-0.262-0.407-0.262-0.666c0-0.25,0.087-0.469,0.262-0.659c0.174-0.189,0.416-0.284,0.726-0.284l3.457,0.135
						l-1.781-2.873c-0.1-0.17-0.15-0.344-0.15-0.524c0-0.269,0.102-0.502,0.307-0.696c0.205-0.194,0.436-0.292,0.696-0.292
						c0.339,0,0.608,0.175,0.808,0.525l1.706,3.082l1.691-3.067c0.229-0.369,0.519-0.554,0.868-0.554c0.259,0,0.484,0.1,0.673,0.299
						c0.189,0.2,0.285,0.435,0.285,0.704c0,0.159-0.045,0.324-0.135,0.493l-1.811,2.903l3.517-0.135
						c0.309,0,0.548,0.093,0.718,0.277c0.169,0.185,0.254,0.406,0.254,0.666c0,0.259-0.085,0.481-0.254,0.666
						c-0.17,0.185-0.409,0.276-0.718,0.276l-3.532-0.119l1.751,2.857c0.1,0.17,0.149,0.345,0.149,0.524
						c0,0.27-0.102,0.504-0.307,0.703c-0.205,0.199-0.432,0.299-0.681,0.299c-0.339,0-0.604-0.179-0.793-0.538l-1.676-3.008
						l-1.661,3.008C215.816,304.951,215.541,305.129,215.202,305.129z"/>
					<path style="fill:#263238;" d="M231.424,305.129c-0.26,0-0.492-0.097-0.696-0.291c-0.205-0.195-0.307-0.427-0.307-0.696
						c0-0.18,0.05-0.349,0.15-0.509l1.796-2.888l-3.502,0.119c-0.309,0-0.551-0.092-0.726-0.276
						c-0.175-0.185-0.262-0.407-0.262-0.666c0-0.25,0.087-0.469,0.262-0.659c0.174-0.189,0.417-0.284,0.726-0.284l3.457,0.135
						l-1.781-2.873c-0.1-0.17-0.15-0.344-0.15-0.524c0-0.269,0.102-0.502,0.307-0.696c0.205-0.194,0.437-0.292,0.696-0.292
						c0.339,0,0.608,0.175,0.808,0.525l1.706,3.082l1.691-3.067c0.229-0.369,0.519-0.554,0.868-0.554c0.259,0,0.484,0.1,0.673,0.299
						c0.189,0.2,0.285,0.435,0.285,0.704c0,0.159-0.045,0.324-0.135,0.493l-1.812,2.903l3.517-0.135c0.31,0,0.549,0.093,0.719,0.277
						c0.169,0.185,0.254,0.406,0.254,0.666c0,0.259-0.085,0.481-0.254,0.666c-0.17,0.185-0.409,0.276-0.719,0.276l-3.531-0.119
						l1.751,2.857c0.1,0.17,0.149,0.345,0.149,0.524c0,0.27-0.103,0.504-0.307,0.703c-0.204,0.199-0.432,0.299-0.681,0.299
						c-0.339,0-0.604-0.179-0.793-0.538l-1.676-3.008l-1.661,3.008C232.037,304.951,231.763,305.129,231.424,305.129z"/>
					<path style="fill:#263238;" d="M247.645,305.129c-0.259,0-0.491-0.097-0.695-0.291c-0.205-0.195-0.307-0.427-0.307-0.696
						c0-0.18,0.05-0.349,0.149-0.509l1.796-2.888l-3.502,0.119c-0.31,0-0.552-0.092-0.726-0.276
						c-0.175-0.185-0.262-0.407-0.262-0.666c0-0.25,0.087-0.469,0.262-0.659c0.174-0.189,0.416-0.284,0.726-0.284l3.457,0.135
						l-1.781-2.873c-0.1-0.17-0.149-0.344-0.149-0.524c0-0.269,0.103-0.502,0.307-0.696c0.204-0.194,0.436-0.292,0.696-0.292
						c0.339,0,0.608,0.175,0.808,0.525l1.706,3.082l1.691-3.067c0.23-0.369,0.519-0.554,0.868-0.554c0.259,0,0.483,0.1,0.673,0.299
						c0.189,0.2,0.284,0.435,0.284,0.704c0,0.159-0.045,0.324-0.135,0.493l-1.811,2.903l3.517-0.135c0.31,0,0.549,0.093,0.719,0.277
						c0.169,0.185,0.254,0.406,0.254,0.666c0,0.259-0.085,0.481-0.254,0.666c-0.17,0.185-0.409,0.276-0.719,0.276l-3.531-0.119
						l1.751,2.857c0.1,0.17,0.149,0.345,0.149,0.524c0,0.27-0.103,0.504-0.307,0.703c-0.205,0.199-0.432,0.299-0.681,0.299
						c-0.34,0-0.604-0.179-0.794-0.538l-1.676-3.008l-1.661,3.008C248.26,304.951,247.985,305.129,247.645,305.129z"/>
					<path style="fill:#263238;" d="M263.867,305.129c-0.259,0-0.491-0.097-0.695-0.291c-0.205-0.195-0.307-0.427-0.307-0.696
						c0-0.18,0.05-0.349,0.149-0.509l1.796-2.888l-3.502,0.119c-0.309,0-0.552-0.092-0.725-0.276
						c-0.175-0.185-0.262-0.407-0.262-0.666c0-0.25,0.087-0.469,0.262-0.659c0.174-0.189,0.416-0.284,0.725-0.284l3.457,0.135
						l-1.781-2.873c-0.1-0.17-0.149-0.344-0.149-0.524c0-0.269,0.103-0.502,0.307-0.696c0.204-0.194,0.437-0.292,0.696-0.292
						c0.339,0,0.608,0.175,0.808,0.525l1.706,3.082l1.691-3.067c0.23-0.369,0.519-0.554,0.868-0.554c0.259,0,0.483,0.1,0.673,0.299
						c0.189,0.2,0.284,0.435,0.284,0.704c0,0.159-0.045,0.324-0.135,0.493l-1.811,2.903l3.517-0.135c0.31,0,0.549,0.093,0.719,0.277
						c0.169,0.185,0.254,0.406,0.254,0.666c0,0.259-0.085,0.481-0.254,0.666c-0.17,0.185-0.409,0.276-0.719,0.276l-3.531-0.119
						l1.751,2.857c0.1,0.17,0.149,0.345,0.149,0.524c0,0.27-0.102,0.504-0.307,0.703c-0.205,0.199-0.432,0.299-0.681,0.299
						c-0.34,0-0.604-0.179-0.794-0.538l-1.676-3.008l-1.661,3.008C264.481,304.951,264.207,305.129,263.867,305.129z"/>
					<path style="fill:#263238;" d="M280.089,305.129c-0.259,0-0.491-0.097-0.695-0.291c-0.205-0.195-0.307-0.427-0.307-0.696
						c0-0.18,0.05-0.349,0.149-0.509l1.796-2.888l-3.502,0.119c-0.31,0-0.552-0.092-0.726-0.276
						c-0.175-0.185-0.262-0.407-0.262-0.666c0-0.25,0.087-0.469,0.262-0.659c0.174-0.189,0.416-0.284,0.726-0.284l3.457,0.135
						l-1.781-2.873c-0.1-0.17-0.149-0.344-0.149-0.524c0-0.269,0.103-0.502,0.307-0.696c0.204-0.194,0.437-0.292,0.696-0.292
						c0.339,0,0.608,0.175,0.808,0.525l1.706,3.082l1.691-3.067c0.229-0.369,0.519-0.554,0.868-0.554c0.259,0,0.483,0.1,0.673,0.299
						c0.19,0.2,0.284,0.435,0.284,0.704c0,0.159-0.045,0.324-0.135,0.493l-1.811,2.903l3.517-0.135c0.31,0,0.549,0.093,0.719,0.277
						c0.169,0.185,0.254,0.406,0.254,0.666c0,0.259-0.085,0.481-0.254,0.666c-0.17,0.185-0.409,0.276-0.719,0.276l-3.531-0.119
						l1.751,2.857c0.1,0.17,0.149,0.345,0.149,0.524c0,0.27-0.103,0.504-0.307,0.703c-0.205,0.199-0.432,0.299-0.681,0.299
						c-0.34,0-0.604-0.179-0.794-0.538l-1.676-3.008l-1.661,3.008C280.703,304.951,280.429,305.129,280.089,305.129z"/>
					<path style="fill:#263238;" d="M296.31,305.129c-0.259,0-0.491-0.097-0.695-0.291c-0.205-0.195-0.307-0.427-0.307-0.696
						c0-0.18,0.05-0.349,0.15-0.509l1.796-2.888l-3.502,0.119c-0.31,0-0.552-0.092-0.726-0.276
						c-0.175-0.185-0.262-0.407-0.262-0.666c0-0.25,0.087-0.469,0.262-0.659c0.174-0.189,0.416-0.284,0.726-0.284l3.457,0.135
						l-1.781-2.873c-0.1-0.17-0.149-0.344-0.149-0.524c0-0.269,0.103-0.502,0.307-0.696c0.204-0.194,0.437-0.292,0.696-0.292
						c0.339,0,0.608,0.175,0.808,0.525l1.706,3.082l1.691-3.067c0.229-0.369,0.518-0.554,0.868-0.554c0.259,0,0.483,0.1,0.673,0.299
						c0.19,0.2,0.284,0.435,0.284,0.704c0,0.159-0.045,0.324-0.135,0.493l-1.811,2.903l3.517-0.135c0.31,0,0.549,0.093,0.719,0.277
						c0.169,0.185,0.254,0.406,0.254,0.666c0,0.259-0.085,0.481-0.254,0.666c-0.17,0.185-0.409,0.276-0.719,0.276l-3.531-0.119
						l1.751,2.857c0.1,0.17,0.149,0.345,0.149,0.524c0,0.27-0.103,0.504-0.307,0.703c-0.205,0.199-0.432,0.299-0.681,0.299
						c-0.34,0-0.604-0.179-0.794-0.538l-1.676-3.008l-1.661,3.008C296.925,304.951,296.65,305.129,296.31,305.129z"/>
				</g>
			</g>
		</g>
		<rect x="169.744" y="102.537" style="fill:#C6FF00;" width="177.023" height="11.095"/>
		
			<path style="fill:#C6FF00;stroke:#263238;stroke-width:1.3374;stroke-linecap:round;stroke-linejoin:round;stroke-miterlimit:10;" d="
			M277.499,82.115h-38.488c-1.449,0-2.624-1.175-2.624-2.624l0,0c0-1.449,1.175-2.624,2.624-2.624h38.488
			c1.449,0,2.624,1.175,2.624,2.624l0,0C280.123,80.94,278.948,82.115,277.499,82.115z"/>
		<path style="fill:#C6FF00;" d="M268.752,404.735c0-5.797-4.699-10.497-10.497-10.497c-5.797,0-10.496,4.699-10.496,10.497
			c0,5.797,4.699,10.497,10.496,10.497C264.052,415.232,268.752,410.533,268.752,404.735z"/>
		
			<rect x="252.936" y="399.415" style="fill:#C6FF00;stroke:#263238;stroke-width:1.3374;stroke-linecap:round;stroke-linejoin:round;stroke-miterlimit:10;" width="10.64" height="10.64"/>
	</g>
</g>
<g id="Plant">
	<g>
		<path style="fill:#C6FF00;" d="M384.975,284.007c0,0-13.94-35.415-1.524-39.628c12.923-4.385,12.348,18.976,11.853,30.396
			c-1.057,24.368-3.746,28.895-5.756,22.949L384.975,284.007z M380.792,311.641c3.832,4.971,4.905-0.184-2.009-23.574
			c-3.24-10.962-10.284-33.244-21.082-24.899c-10.375,8.017,14.311,36.985,14.311,36.985L380.792,311.641z M373.389,331.938
			c3.651,3.245,3.724-0.852-4.952-17.733c-4.066-7.912-12.68-23.926-19.726-15.982c-6.77,7.633,16.301,26.203,16.301,26.203
			L373.389,331.938z M365.419,356.082c3.651,3.245,3.724-0.852-4.952-17.733c-4.066-7.912-12.68-23.926-19.726-15.982
			c-6.77,7.633,16.301,26.203,16.301,26.203L365.419,356.082z M388.525,306.936c-5.848,2.281-1.202,4.759,23.189,4.697
			c11.431-0.029,34.794-0.526,29.821-13.234c-4.778-12.21-39.516,3.34-39.516,3.34L388.525,306.936z M381.874,323.18
			c-6.185,1.073-2.124,4.425,21.793,9.213c11.209,2.244,34.204,6.401,31.856-7.042c-2.256-12.916-39.392-4.582-39.392-4.582
			L381.874,323.18z M374.416,343.037c-5.255,0.764-1.898,3.693,18.216,8.295c9.427,2.157,28.777,6.204,27.102-5.219
			c-1.609-10.975-33.206-4.786-33.206-4.786L374.416,343.037z M368.767,361.405c-5.144,1.318-1.496,3.874,18.993,6.315
			c9.603,1.144,29.273,3.115,26.396-8.066c-2.765-10.742-33.526-1.234-33.526-1.234L368.767,361.405z M398.908,286.985
			c-3.041,6.712,3.232,5.697,24.411-12.788c9.926-8.663,29.819-26.809,14.064-35.841c-15.137-8.677-31.4,33.207-31.4,33.207
			L398.908,286.985z M369.552,385.278c-3.177,1.854-0.064,2.575,14.482-0.323c6.817-1.359,20.691-4.359,15.98-10.274
			c-4.526-5.683-23.123,6.353-23.123,6.353L369.552,385.278z"/>
		<path style="opacity:0.3;fill:#FFFFFF;" d="M384.975,284.007c0,0-13.94-35.415-1.524-39.628
			c12.923-4.385,12.348,18.976,11.853,30.396c-1.057,24.368-3.746,28.895-5.756,22.949L384.975,284.007z M380.792,311.641
			c3.832,4.971,4.905-0.184-2.009-23.574c-3.24-10.962-10.284-33.244-21.082-24.899c-10.375,8.017,14.311,36.985,14.311,36.985
			L380.792,311.641z M373.389,331.938c3.651,3.245,3.724-0.852-4.952-17.733c-4.066-7.912-12.68-23.926-19.726-15.982
			c-6.77,7.633,16.301,26.203,16.301,26.203L373.389,331.938z M365.419,356.082c3.651,3.245,3.724-0.852-4.952-17.733
			c-4.066-7.912-12.68-23.926-19.726-15.982c-6.77,7.633,16.301,26.203,16.301,26.203L365.419,356.082z M388.525,306.936
			c-5.848,2.281-1.202,4.759,23.189,4.697c11.431-0.029,34.794-0.526,29.821-13.234c-4.778-12.21-39.516,3.34-39.516,3.34
			L388.525,306.936z M381.874,323.18c-6.185,1.073-2.124,4.425,21.793,9.213c11.209,2.244,34.204,6.401,31.856-7.042
			c-2.256-12.916-39.392-4.582-39.392-4.582L381.874,323.18z M374.416,343.037c-5.255,0.764-1.898,3.693,18.216,8.295
			c9.427,2.157,28.777,6.204,27.102-5.219c-1.609-10.975-33.206-4.786-33.206-4.786L374.416,343.037z M368.767,361.405
			c-5.144,1.318-1.496,3.874,18.993,6.315c9.603,1.144,29.273,3.115,26.396-8.066c-2.765-10.742-33.526-1.234-33.526-1.234
			L368.767,361.405z M398.908,286.985c-3.041,6.712,3.232,5.697,24.411-12.788c9.926-8.663,29.819-26.809,14.064-35.841
			c-15.137-8.677-31.4,33.207-31.4,33.207L398.908,286.985z M369.552,385.278c-3.177,1.854-0.064,2.575,14.482-0.323
			c6.817-1.359,20.691-4.359,15.98-10.274c-4.526-5.683-23.123,6.353-23.123,6.353L369.552,385.278z"/>
		<g>
			<path style="fill:#C6FF00;" d="M391.146,300.488l-2.426-40.43 M383.464,313.83L368.1,279.06 M423.085,303.722l-36.791,5.256
				 M375.502,332.572l-19.935-25.615 M378.963,324.727l27.458,1.384 M372.503,344.34l20.997,2.077 M367.426,356.799l-10.383-15.69
				 M366.273,362.337l24.689,0.231 M361.27,408.657c0.345-0.023,0.605-0.321,0.583-0.667c-1.572-23.584,7.548-62.196,22.18-93.897
				c9.352-20.262,46.018-60.084,46.387-60.483c0.234-0.254,0.219-0.65-0.035-0.885c-0.252-0.233-0.649-0.22-0.885,0.035
				c-0.37,0.401-37.169,40.368-46.604,60.808c-14.943,32.379-23.902,70.357-22.293,94.507c0.023,0.33,0.298,0.584,0.624,0.584
				C361.241,408.658,361.255,408.658,361.27,408.657z M391.183,301.112c0.346-0.021,0.608-0.317,0.588-0.662l-2.426-40.43
				c-0.022-0.346-0.33-0.622-0.662-0.588c-0.346,0.021-0.608,0.317-0.588,0.662l2.426,40.43c0.021,0.333,0.296,0.589,0.624,0.589
				C391.157,301.113,391.17,301.113,391.183,301.112z M383.717,314.402c0.316-0.14,0.459-0.509,0.319-0.825l-15.363-34.77
				c-0.14-0.317-0.51-0.461-0.825-0.319c-0.316,0.14-0.459,0.509-0.319,0.825l15.363,34.771c0.103,0.234,0.332,0.373,0.572,0.373
				C383.549,314.456,383.635,314.44,383.717,314.402z M386.383,309.599l36.792-5.257c0.342-0.05,0.58-0.366,0.531-0.709
				c-0.049-0.342-0.366-0.575-0.709-0.531l-36.792,5.257c-0.342,0.05-0.58,0.366-0.531,0.709c0.045,0.311,0.313,0.537,0.619,0.537
				C386.322,309.604,386.352,309.603,386.383,309.599z M375.887,333.066c0.272-0.213,0.321-0.605,0.109-0.879l-19.935-25.615
				c-0.214-0.271-0.605-0.32-0.879-0.109c-0.272,0.213-0.321,0.605-0.109,0.879l19.935,25.615c0.124,0.158,0.308,0.241,0.494,0.241
				C375.637,333.198,375.772,333.155,375.887,333.066z M407.046,326.143c0.018-0.345-0.248-0.639-0.594-0.656l-27.458-1.385
				c-0.347-0.033-0.639,0.248-0.656,0.594c-0.018,0.345,0.248,0.639,0.594,0.656l27.458,1.385c0.011,0.001,0.022,0.001,0.032,0.001
				C406.753,326.737,407.029,326.478,407.046,326.143z M394.123,346.478c0.034-0.344-0.218-0.65-0.561-0.685l-20.997-2.076
				c-0.336-0.032-0.65,0.217-0.685,0.561c-0.034,0.344,0.218,0.65,0.561,0.685l20.997,2.076c0.021,0.002,0.042,0.003,0.063,0.003
				C393.818,347.042,394.091,346.801,394.123,346.478z M367.772,357.322c0.288-0.191,0.367-0.58,0.177-0.868l-10.384-15.69
				c-0.191-0.288-0.578-0.368-0.868-0.177c-0.288,0.191-0.367,0.58-0.177,0.868l10.384,15.69c0.121,0.182,0.32,0.28,0.523,0.28
				C367.546,357.426,367.666,357.393,367.772,357.322z M391.588,362.574c0.003-0.346-0.274-0.629-0.62-0.632l-24.69-0.232
				c-0.002,0-0.004,0-0.006,0c-0.343,0-0.623,0.276-0.626,0.62c-0.003,0.346,0.274,0.629,0.62,0.632l24.689,0.231
				c0.002,0,0.004,0,0.006,0C391.305,363.194,391.585,362.918,391.588,362.574z M358.465,399.492
				c0.041-0.116,4.258-11.713,16.914-14.482c0.338-0.073,0.552-0.407,0.478-0.745c-0.073-0.339-0.412-0.549-0.745-0.477
				c-13.355,2.923-17.785,15.168-17.828,15.291c-0.114,0.326,0.058,0.683,0.384,0.798c0.068,0.023,0.139,0.035,0.207,0.035
				C358.132,399.911,358.374,399.75,358.465,399.492z M361.27,408.657c0.345-0.023,0.605-0.321,0.583-0.667
				c-1.572-23.584,7.548-62.196,22.18-93.897c9.352-20.262,46.018-60.084,46.387-60.483c0.234-0.254,0.219-0.65-0.035-0.885
				c-0.252-0.233-0.649-0.22-0.885,0.035c-0.37,0.401-37.169,40.368-46.604,60.808c-14.943,32.379-23.902,70.357-22.293,94.507
				c0.023,0.33,0.298,0.584,0.624,0.584C361.241,408.658,361.255,408.658,361.27,408.657z M391.183,301.112
				c0.346-0.021,0.608-0.317,0.588-0.662l-2.426-40.43c-0.022-0.346-0.33-0.622-0.662-0.588c-0.346,0.021-0.608,0.317-0.588,0.662
				l2.426,40.43c0.021,0.333,0.296,0.589,0.624,0.589C391.157,301.113,391.17,301.113,391.183,301.112z M383.717,314.402
				c0.316-0.14,0.459-0.509,0.319-0.825l-15.363-34.77c-0.14-0.317-0.51-0.461-0.825-0.319c-0.316,0.14-0.459,0.509-0.319,0.825
				l15.363,34.771c0.103,0.234,0.332,0.373,0.572,0.373C383.549,314.456,383.635,314.44,383.717,314.402z M386.383,309.599
				l36.792-5.257c0.342-0.05,0.58-0.366,0.531-0.709c-0.049-0.342-0.366-0.575-0.709-0.531l-36.792,5.257
				c-0.342,0.05-0.58,0.366-0.531,0.709c0.045,0.311,0.313,0.537,0.619,0.537C386.322,309.604,386.352,309.603,386.383,309.599z
				 M375.887,333.066c0.272-0.213,0.321-0.605,0.109-0.879l-19.935-25.615c-0.214-0.271-0.605-0.32-0.879-0.109
				c-0.272,0.213-0.321,0.605-0.109,0.879l19.935,25.615c0.124,0.158,0.308,0.241,0.494,0.241
				C375.637,333.198,375.772,333.155,375.887,333.066z M407.046,326.143c0.018-0.345-0.248-0.639-0.594-0.656l-27.458-1.385
				c-0.347-0.033-0.639,0.248-0.656,0.594c-0.018,0.345,0.248,0.639,0.594,0.656l27.458,1.385c0.011,0.001,0.022,0.001,0.032,0.001
				C406.753,326.737,407.029,326.478,407.046,326.143z M394.123,346.478c0.034-0.344-0.218-0.65-0.561-0.685l-20.997-2.076
				c-0.336-0.032-0.65,0.217-0.685,0.561c-0.034,0.344,0.218,0.65,0.561,0.685l20.997,2.076c0.021,0.002,0.042,0.003,0.063,0.003
				C393.818,347.042,394.091,346.801,394.123,346.478z M367.772,357.322c0.288-0.191,0.367-0.58,0.177-0.868l-10.384-15.69
				c-0.191-0.288-0.578-0.368-0.868-0.177c-0.288,0.191-0.367,0.58-0.177,0.868l10.384,15.69c0.121,0.182,0.32,0.28,0.523,0.28
				C367.546,357.426,367.666,357.393,367.772,357.322z M391.588,362.574c0.003-0.346-0.274-0.629-0.62-0.632l-24.69-0.232
				c-0.002,0-0.004,0-0.006,0c-0.343,0-0.623,0.276-0.626,0.62c-0.003,0.346,0.274,0.629,0.62,0.632l24.689,0.231
				c0.002,0,0.004,0,0.006,0C391.305,363.194,391.585,362.918,391.588,362.574z M358.465,399.492
				c0.041-0.116,4.258-11.713,16.914-14.482c0.338-0.073,0.552-0.407,0.478-0.745c-0.073-0.339-0.412-0.549-0.745-0.477
				c-13.355,2.923-17.785,15.168-17.828,15.291c-0.114,0.326,0.058,0.683,0.384,0.798c0.068,0.023,0.139,0.035,0.207,0.035
				C358.132,399.911,358.374,399.75,358.465,399.492z"/>
			<path style="opacity:0.2;" d="M391.146,300.488l-2.426-40.43 M383.464,313.83L368.1,279.06 M423.085,303.722l-36.791,5.256
				 M375.502,332.572l-19.935-25.615 M378.963,324.727l27.458,1.384 M372.503,344.34l20.997,2.077 M367.426,356.799l-10.383-15.69
				 M366.273,362.337l24.689,0.231 M361.27,408.657c0.345-0.023,0.605-0.321,0.583-0.667c-1.572-23.584,7.548-62.196,22.18-93.897
				c9.352-20.262,46.018-60.084,46.387-60.483c0.234-0.254,0.219-0.65-0.035-0.885c-0.252-0.233-0.649-0.22-0.885,0.035
				c-0.37,0.401-37.169,40.368-46.604,60.808c-14.943,32.379-23.902,70.357-22.293,94.507c0.023,0.33,0.298,0.584,0.624,0.584
				C361.241,408.658,361.255,408.658,361.27,408.657z M391.183,301.112c0.346-0.021,0.608-0.317,0.588-0.662l-2.426-40.43
				c-0.022-0.346-0.33-0.622-0.662-0.588c-0.346,0.021-0.608,0.317-0.588,0.662l2.426,40.43c0.021,0.333,0.296,0.589,0.624,0.589
				C391.157,301.113,391.17,301.113,391.183,301.112z M383.717,314.402c0.316-0.14,0.459-0.509,0.319-0.825l-15.363-34.77
				c-0.14-0.317-0.51-0.461-0.825-0.319c-0.316,0.14-0.459,0.509-0.319,0.825l15.363,34.771c0.103,0.234,0.332,0.373,0.572,0.373
				C383.549,314.456,383.635,314.44,383.717,314.402z M386.383,309.599l36.792-5.257c0.342-0.05,0.58-0.366,0.531-0.709
				c-0.049-0.342-0.366-0.575-0.709-0.531l-36.792,5.257c-0.342,0.05-0.58,0.366-0.531,0.709c0.045,0.311,0.313,0.537,0.619,0.537
				C386.322,309.604,386.352,309.603,386.383,309.599z M375.887,333.066c0.272-0.213,0.321-0.605,0.109-0.879l-19.935-25.615
				c-0.214-0.271-0.605-0.32-0.879-0.109c-0.272,0.213-0.321,0.605-0.109,0.879l19.935,25.615c0.124,0.158,0.308,0.241,0.494,0.241
				C375.637,333.198,375.772,333.155,375.887,333.066z M407.046,326.143c0.018-0.345-0.248-0.639-0.594-0.656l-27.458-1.385
				c-0.347-0.033-0.639,0.248-0.656,0.594c-0.018,0.345,0.248,0.639,0.594,0.656l27.458,1.385c0.011,0.001,0.022,0.001,0.032,0.001
				C406.753,326.737,407.029,326.478,407.046,326.143z M394.123,346.478c0.034-0.344-0.218-0.65-0.561-0.685l-20.997-2.076
				c-0.336-0.032-0.65,0.217-0.685,0.561c-0.034,0.344,0.218,0.65,0.561,0.685l20.997,2.076c0.021,0.002,0.042,0.003,0.063,0.003
				C393.818,347.042,394.091,346.801,394.123,346.478z M367.772,357.322c0.288-0.191,0.367-0.58,0.177-0.868l-10.384-15.69
				c-0.191-0.288-0.578-0.368-0.868-0.177c-0.288,0.191-0.367,0.58-0.177,0.868l10.384,15.69c0.121,0.182,0.32,0.28,0.523,0.28
				C367.546,357.426,367.666,357.393,367.772,357.322z M391.588,362.574c0.003-0.346-0.274-0.629-0.62-0.632l-24.69-0.232
				c-0.002,0-0.004,0-0.006,0c-0.343,0-0.623,0.276-0.626,0.62c-0.003,0.346,0.274,0.629,0.62,0.632l24.689,0.231
				c0.002,0,0.004,0,0.006,0C391.305,363.194,391.585,362.918,391.588,362.574z M358.465,399.492
				c0.041-0.116,4.258-11.713,16.914-14.482c0.338-0.073,0.552-0.407,0.478-0.745c-0.073-0.339-0.412-0.549-0.745-0.477
				c-13.355,2.923-17.785,15.168-17.828,15.291c-0.114,0.326,0.058,0.683,0.384,0.798c0.068,0.023,0.139,0.035,0.207,0.035
				C358.132,399.911,358.374,399.75,358.465,399.492z M361.27,408.657c0.345-0.023,0.605-0.321,0.583-0.667
				c-1.572-23.584,7.548-62.196,22.18-93.897c9.352-20.262,46.018-60.084,46.387-60.483c0.234-0.254,0.219-0.65-0.035-0.885
				c-0.252-0.233-0.649-0.22-0.885,0.035c-0.37,0.401-37.169,40.368-46.604,60.808c-14.943,32.379-23.902,70.357-22.293,94.507
				c0.023,0.33,0.298,0.584,0.624,0.584C361.241,408.658,361.255,408.658,361.27,408.657z M391.183,301.112
				c0.346-0.021,0.608-0.317,0.588-0.662l-2.426-40.43c-0.022-0.346-0.33-0.622-0.662-0.588c-0.346,0.021-0.608,0.317-0.588,0.662
				l2.426,40.43c0.021,0.333,0.296,0.589,0.624,0.589C391.157,301.113,391.17,301.113,391.183,301.112z M383.717,314.402
				c0.316-0.14,0.459-0.509,0.319-0.825l-15.363-34.77c-0.14-0.317-0.51-0.461-0.825-0.319c-0.316,0.14-0.459,0.509-0.319,0.825
				l15.363,34.771c0.103,0.234,0.332,0.373,0.572,0.373C383.549,314.456,383.635,314.44,383.717,314.402z M386.383,309.599
				l36.792-5.257c0.342-0.05,0.58-0.366,0.531-0.709c-0.049-0.342-0.366-0.575-0.709-0.531l-36.792,5.257
				c-0.342,0.05-0.58,0.366-0.531,0.709c0.045,0.311,0.313,0.537,0.619,0.537C386.322,309.604,386.352,309.603,386.383,309.599z
				 M375.887,333.066c0.272-0.213,0.321-0.605,0.109-0.879l-19.935-25.615c-0.214-0.271-0.605-0.32-0.879-0.109
				c-0.272,0.213-0.321,0.605-0.109,0.879l19.935,25.615c0.124,0.158,0.308,0.241,0.494,0.241
				C375.637,333.198,375.772,333.155,375.887,333.066z M407.046,326.143c0.018-0.345-0.248-0.639-0.594-0.656l-27.458-1.385
				c-0.347-0.033-0.639,0.248-0.656,0.594c-0.018,0.345,0.248,0.639,0.594,0.656l27.458,1.385c0.011,0.001,0.022,0.001,0.032,0.001
				C406.753,326.737,407.029,326.478,407.046,326.143z M394.123,346.478c0.034-0.344-0.218-0.65-0.561-0.685l-20.997-2.076
				c-0.336-0.032-0.65,0.217-0.685,0.561c-0.034,0.344,0.218,0.65,0.561,0.685l20.997,2.076c0.021,0.002,0.042,0.003,0.063,0.003
				C393.818,347.042,394.091,346.801,394.123,346.478z M367.772,357.322c0.288-0.191,0.367-0.58,0.177-0.868l-10.384-15.69
				c-0.191-0.288-0.578-0.368-0.868-0.177c-0.288,0.191-0.367,0.58-0.177,0.868l10.384,15.69c0.121,0.182,0.32,0.28,0.523,0.28
				C367.546,357.426,367.666,357.393,367.772,357.322z M391.588,362.574c0.003-0.346-0.274-0.629-0.62-0.632l-24.69-0.232
				c-0.002,0-0.004,0-0.006,0c-0.343,0-0.623,0.276-0.626,0.62c-0.003,0.346,0.274,0.629,0.62,0.632l24.689,0.231
				c0.002,0,0.004,0,0.006,0C391.305,363.194,391.585,362.918,391.588,362.574z M358.465,399.492
				c0.041-0.116,4.258-11.713,16.914-14.482c0.338-0.073,0.552-0.407,0.478-0.745c-0.073-0.339-0.412-0.549-0.745-0.477
				c-13.355,2.923-17.785,15.168-17.828,15.291c-0.114,0.326,0.058,0.683,0.384,0.798c0.068,0.023,0.139,0.035,0.207,0.035
				C358.132,399.911,358.374,399.75,358.465,399.492z"/>
		</g>
		<g>
			<polygon style="fill:#C6FF00;" points="377.558,391.031 349.25,391.031 349.25,396.888 351.717,396.888 356.83,428.862 
				369.979,428.862 375.092,396.888 377.558,396.888 			"/>
			<polygon style="opacity:0.3;fill:#FFFFFF;" points="377.558,391.031 349.25,391.031 349.25,396.888 351.717,396.888 
				356.83,428.862 369.979,428.862 375.092,396.888 377.558,396.888 			"/>
		</g>
	</g>
</g>
<g id="Character_2_">
	<g>
		<polygon style="fill:#FFFFFF;stroke:#263238;stroke-width:1.004;stroke-miterlimit:10;" points="122.68,213.83 89.752,203.082 
			86.823,195.339 80.126,195.13 67.989,192.828 69.454,195.339 84.73,206.43 88.496,208.313 122.945,226.298 		"/>
		<polygon style="fill:#FFFFFF;stroke:#263238;stroke-width:1.004;stroke-linejoin:round;stroke-miterlimit:10;" points="
			86.823,195.339 83.684,193.456 77.406,195.758 78.452,197.013 		"/>
		<g>
			<defs>
				<polygon id="XMLID_5_" points="122.68,213.83 89.752,203.082 86.823,195.339 80.126,195.13 67.989,192.828 69.454,195.339 
					84.73,206.43 88.496,208.313 122.945,226.298 				"/>
			</defs>
			<use xlink:href="#XMLID_5_"  style="overflow:visible;fill:#FFFFFF;"/>
			<clipPath id="XMLID_00000157285687676016471860000009501077461573982349_">
				<use xlink:href="#XMLID_5_"  style="overflow:visible;"/>
			</clipPath>
			
				<polygon style="opacity:0.5;clip-path:url(#XMLID_00000157285687676016471860000009501077461573982349_);fill:#C6FF00;stroke:#263238;stroke-width:1.004;stroke-miterlimit:10;" points="
				122.68,213.83 89.752,203.082 86.823,195.339 80.126,195.13 67.989,192.828 69.454,195.339 84.73,206.43 88.496,208.313 
				122.945,226.298 			"/>
			<use xlink:href="#XMLID_5_"  style="overflow:visible;fill:none;stroke:#263238;stroke-width:1.004;stroke-miterlimit:10;"/>
		</g>
		<g>
			<defs>
				<polygon id="XMLID_6_" points="86.823,195.339 83.684,193.456 77.406,195.758 78.452,197.013 				"/>
			</defs>
			<use xlink:href="#XMLID_6_"  style="overflow:visible;fill:#FFFFFF;"/>
			<clipPath id="XMLID_00000090284686715448967710000011094215461126989727_">
				<use xlink:href="#XMLID_6_"  style="overflow:visible;"/>
			</clipPath>
			
				<polygon style="opacity:0.5;clip-path:url(#XMLID_00000090284686715448967710000011094215461126989727_);fill:#C6FF00;stroke:#263238;stroke-width:1.004;stroke-linejoin:round;stroke-miterlimit:10;" points="
				86.823,195.339 83.684,193.456 77.406,195.758 78.452,197.013 			"/>
			
				<use xlink:href="#XMLID_6_"  style="overflow:visible;fill:none;stroke:#263238;stroke-width:1.004;stroke-linejoin:round;stroke-miterlimit:10;"/>
		</g>
		<g>
			<defs>
				<path id="XMLID_4_" d="M129.671,144.055c0,0-0.509,4.501,0.76,7.393c1.269,2.893,8.324,12.678,8.324,12.678l-13.17,10.559
					c0,0-5.455-11.031-6.499-12.78c-1.044-1.75-2.285-9.444,1.102-14.931C123.576,141.486,128.459,140.033,129.671,144.055z"/>
			</defs>
			<use xlink:href="#XMLID_4_"  style="overflow:visible;fill:#FFFFFF;"/>
			<clipPath id="XMLID_00000007419463940946703370000005924706437623308201_">
				<use xlink:href="#XMLID_4_"  style="overflow:visible;"/>
			</clipPath>
			<polygon style="opacity:0.5;clip-path:url(#XMLID_00000007419463940946703370000005924706437623308201_);fill:#C6FF00;" points="
				122.906,158.521 128.621,170.359 125.585,174.685 119.844,164.44 			"/>
			<use xlink:href="#XMLID_4_"  style="overflow:visible;fill:none;stroke:#263238;stroke-width:1.004;stroke-miterlimit:10;"/>
		</g>
		<g>
			<defs>
				<path id="XMLID_3_" d="M133.745,135.822c-0.809-4.986-6.535-15.177-15.626-14.779c-5.902,0.258-8.656,1.451-11.223,2.896
					c-1.308,0.736-4.83,3.193-5.793,4.344c-4.448,5.323-5.975,6.789-5.145,10.865c-0.185,1.244,0.295,3.554,0.755,4.779
					c1.363,3.634,2.288,6.005,3.464,7.732c-0.361,1.693-1.295,6.149-1.346,7.17c-0.047,0.944,2.985,0.309,4.536-0.077
					c2.862,6.395,8.1,10.835,9.735,11.346c2.837,0.886,7.332-3.781,9.707-7.398s0.584-7.695,0.591-9.312
					c0.007-1.617,5.354-5.178,7.325-6.305C132.697,145.957,134.554,140.808,133.745,135.822z"/>
			</defs>
			<use xlink:href="#XMLID_3_"  style="overflow:visible;fill:#FFFFFF;"/>
			<clipPath id="XMLID_00000171685750823132614100000004796601837758755464_">
				<use xlink:href="#XMLID_3_"  style="overflow:visible;"/>
			</clipPath>
			<path style="opacity:0.5;clip-path:url(#XMLID_00000171685750823132614100000004796601837758755464_);fill:#C6FF00;" d="
				M95.958,139.149c-0.185,1.244,0.295,3.554,0.755,4.779c1.363,3.634,2.288,6.005,3.464,7.732c-0.361,1.693-1.295,6.149-1.346,7.17
				c-0.047,0.944,2.985,0.309,4.537-0.077c2.862,6.395,8.1,10.835,9.735,11.346c2.837,0.886,7.332-3.781,9.707-7.398
				c0.647-0.985,0.978-2.003,1.127-2.997c-0.129-0.472-0.217-0.765-0.217-0.765s-1.344,5.154-4.033,4.481
				c-2.689-0.672-6.722-6.05-8.963-7.842c-2.241-1.792-1.344-4.257-1.793-6.946c-0.448-2.689-7.17-5.154-7.618-6.722
				c-0.448-1.568,1.12-8.066,1.12-8.066s2.542-3.401,2.017-2.017c-0.525,1.385-0.896,4.257,0.672,7.394
				c1.569,3.137,4.706,2.913,4.706,2.913l2.465-12.1l-5.154-4.257l-6.035,2.507C96.655,133.607,95.129,135.073,95.958,139.149z"/>
			<use xlink:href="#XMLID_3_"  style="overflow:visible;fill:none;stroke:#263238;stroke-miterlimit:10;"/>
		</g>
		<path style="fill:none;stroke:#263238;stroke-linecap:round;stroke-miterlimit:10;" d="M101.416,148.636l0.954,2.862
			c0,0,2.146,0.715,4.77-2.146"/>
		<path style="fill:none;stroke:#263238;stroke-linecap:round;stroke-miterlimit:10;" d="M108.809,161.991
			c0,0,2.385-0.238,3.339-3.577"/>
		<path style="fill:none;stroke:#263238;stroke-linecap:round;stroke-miterlimit:10;" d="M99.746,146.251
			c0,0,0.715-2.146,5.008-2.146"/>
		<g>
			<path style="fill:#263238;" d="M121.739,117.061c-4.135-0.687-9.413-0.724-9.413-0.724s-9.413-5.431-18.464,0.362
				c-9.051,5.793-4.706,15.929-4.706,18.464c0,2.534-2.896,2.534-1.086,5.793c1.81,3.258,7.888,1.464,7.888,1.464
				s0.014-3.816,3.272-6.35c3.258-2.534,5.856-3.079,6.942-2.355c0,0-0.724,5.43,0.362,7.603c0,0,3.62,1.81,4.706,1.81
				c1.086,0-0.709,1.535,2.896,2.896c1.557,0.588,2.849,0.127,3.962-0.47c0.527-2.201,1.694-5.511,3.852-4.744
				c3.175,1.129,6.059,8.934,1.772,11.587c5.161,0.938,11.412-8.184,11.774-16.511C135.859,127.56,127.096,117.951,121.739,117.061z
				"/>
			<g>
				<path style="fill:none;stroke:#FFFFFF;stroke-width:0.5;stroke-linecap:round;stroke-linejoin:round;stroke-miterlimit:10;" d="
					M106.373,130.151c0,0,2.653-1.429,5.919,1.633c3.266,3.062,9.593,7.144,17.961,4.899"/>
				<path style="fill:none;stroke:#FFFFFF;stroke-width:0.5;stroke-linecap:round;stroke-linejoin:round;stroke-miterlimit:10;" d="
					M105.965,127.701c0,0,1.837-2.857,4.899-2.857c3.061,0,10.205,4.286,15.92,4.286"/>
				<path style="fill:none;stroke:#FFFFFF;stroke-width:0.5;stroke-linecap:round;stroke-linejoin:round;stroke-miterlimit:10;" d="
					M103.924,133.212c0,0-3.47-4.286-6.735-0.816c-3.266,3.47-1.231,6.753-1.231,6.753"/>
				<path style="fill:none;stroke:#FFFFFF;stroke-width:0.5;stroke-linecap:round;stroke-linejoin:round;stroke-miterlimit:10;" d="
					M90.045,136.07c0,0,3.062-2.449,3.47-6.939c0.408-4.49,6.531-8.368,10.409-4.694"/>
				<path style="fill:none;stroke:#FFFFFF;stroke-width:0.5;stroke-linecap:round;stroke-linejoin:round;stroke-miterlimit:10;" d="
					M96.372,119.742c0,0,6.123-5.919,11.226,1.633"/>
			</g>
		</g>
		<g>
			<path style="fill:#FFFFFF;stroke:#263238;stroke-width:1.004;stroke-miterlimit:10;" d="M146.263,410.81
				c0,0,3.77,5.864,3.351,9.634c-0.419,3.77-0.419,3.77-0.419,3.77s-13.822,3.77-16.754,3.77c-2.932,0-18.425-1.456-18.425-1.456
				l-0.663-2.653c-0.101-0.405,0.099-0.825,0.477-1.001l13.829-6.449l4.362-4.775L146.263,410.81z"/>
			<path style="fill:#C6FF00;stroke:#263238;stroke-width:1.004;stroke-miterlimit:10;" d="M134.535,425.051
				c3.75,0.288,10.878-2.006,14.952-3.462c-0.291,2.619-0.292,2.624-0.292,2.624s-13.822,3.77-16.754,3.77
				c-2.932,0-18.425-1.456-18.425-1.456l-0.473-1.894C115.947,424.636,129.578,424.67,134.535,425.051z"/>
		</g>
		<path style="fill:#FFFFFF;stroke:#263238;stroke-width:1.004;stroke-miterlimit:10;" d="M127.66,416.423l-20.13,8.754
			c0,0-1.724,4.31,0,5.172c1.724,0.862,39.219,0,39.219,0s2.596-6.811-1.503-11.379C141.145,414.403,127.66,416.423,127.66,416.423z
			"/>
		<path style="fill:#C6FF00;stroke:#263238;stroke-width:1.004;stroke-miterlimit:10;" d="M146.748,430.349
			c0,0-37.495,0.862-39.219,0c-0.83-0.415-0.858-1.629-0.667-2.777h40.545C147.174,429.215,146.748,430.349,146.748,430.349z"/>
		<path style="fill:#C6FF00;stroke:#263238;stroke-width:1.004;stroke-miterlimit:10;" d="M118.144,264.206
			c0,0-5.265,23.311-7.256,37.889c-1.991,14.578-3.16,43.792-2.741,47.143c0.419,3.351,21.362,59.478,21.362,59.478l2.094,5.026
			l14.66-2.932c0,0-6.702-21.362-9.215-33.09c-2.513-11.728-7.958-30.995-7.958-34.346c0-3.351,13.042-67.329,13.934-71.537
			c0.893-4.207,5.148-10.645,5.148-10.645l-28.07-0.572L118.144,264.206z"/>
		<path style="fill:#C6FF00;stroke:#263238;stroke-width:1.004;stroke-miterlimit:10;" d="M118.144,264.206
			c0,0-3.081,21.29-1.815,36.097c1.266,14.807,4.024,46.31,4.024,50.996c0,4.685,7.569,32.706,8.032,41.497
			c0.669,12.717-0.279,19.018-0.279,19.018l-0.447,4.609c0,0,8.835,1.253,10.765,1.806c3.242,0.93,6.821,0.741,6.821,0.741
			s3.219-14.127,3.219-26.175c0-12.047-2.677-36.812-4.016-46.851c-1.339-10.04,2.866-48.775,5.241-56.027
			c2.375-7.252,7.585-22.541,4.082-30.355C150.268,251.748,118.144,264.206,118.144,264.206z"/>
		<path style="fill:#263238;" d="M157.623,255.65l-0.323,9.52c0,0-5.703,1.128-13.382,2.461c-6.339,1.1-22.258-0.289-27.621-0.807
			c-1.003-0.097-1.748-0.971-1.687-1.977l0.523-8.6L157.623,255.65z"/>
		<g>
			<path style="fill:#FFFFFF;stroke:#263238;stroke-width:1.004;stroke-miterlimit:10;" d="M135.338,160.748
				c0,0-8.976,9.733-12.392,15.785c-3.416,6.052-4.731,15.321-5.946,22.615s2.166,24.438,1.205,32.31l-3.073,24.788
				c0,0-0.659,1.69,1.546,3.523c2.205,1.834,13.011,2.516,22.749,3.005c3.563,0.179,14.197-2.115,15.931-2.223
				c2.101-0.131,2.176-2.798,2.265-4.901c0.417-9.874,2.201-36.179,3.363-47.644C163.354,184.638,150.158,162.08,135.338,160.748z"
				/>
			<g>
				<path style="fill:#C6FF00;" d="M159.84,221.299c0.402-5.191,0.801-9.896,1.145-13.294c0.103-1.014,0.166-2.026,0.211-3.036
					l-23.91,4.03l-20.532-7.032c-0.11,3.492,0.286,8.07,0.717,12.723l20.149,5.642L159.84,221.299z"/>
				<path style="fill:#C6FF00;" d="M134.445,161.733c-1.357,1.512-4.056,4.577-6.628,7.84L142.953,185l5-2L134.445,161.733z"/>
				<path style="fill:#263238;" d="M135.338,160.748c0,0-8.976,9.733-12.392,15.785c-0.964,1.708-1.757,3.678-2.431,5.783
					l18.102-20.911C137.536,161.078,136.443,160.847,135.338,160.748z"/>
				<path style="fill:#C6FF00;" d="M117.651,195.211l19.636,6.455l23.856-2.733c-0.395-6.158-1.789-12.061-3.914-17.31l-19.275,7.71
					l-17.189-7.789C119.317,185.79,118.409,190.68,117.651,195.211z"/>
				<path style="fill:#C6FF00;" d="M151.465,245.775c-9.961,1.679-20.184,0.844-29.741-2.429l-4.79-1.64l-1.491,12.031l5.458,1.528
					c10.378,2.906,21.226,3.743,31.927,2.463l4.411-0.527c0.222-0.475,0.36-0.997,0.384-1.552c0.113-2.672,0.327-6.554,0.6-11.014
					L151.465,245.775z"/>
				<path style="fill:#C6FF00;" d="M154.132,229.442c-9.961,1.679-20.184,0.844-29.741-2.429l-6.097-2.088
					c0.123,2.503,0.128,4.755-0.089,6.533l-0.715,5.772l6.078,1.702c10.378,2.906,21.226,3.743,31.927,2.463l2.954-0.353
					c0.255-3.982,0.546-8.261,0.85-12.471L154.132,229.442z"/>
			</g>
		</g>
		
			<rect x="58.001" y="193.741" transform="matrix(-0.7793 -0.6266 0.6266 -0.7793 3.4518 390.0277)" style="fill:#263238;" width="24.814" height="1.33"/>
		<g>
			<defs>
				<path id="XMLID_7_" d="M144.648,171.537c0,0,7.087,4.832,7.249,16.247c0.07,4.957-0.445,9.667-1.594,17.86
					c-1.149,8.193-8.297,34.852-13.849,38.092c-5.551,3.239-14.196-2.879-14.196-2.879l-41.744-27.709L70.43,204.95l-4.951-9.444
					l1.49-2.95l12.341,9.474l-6.627-6.125l1.3-1.658l2.395,1.673l7.011,2.615l1.533,10.034l2.158,1.482l39.886,14.527
					c0,0-0.495-21.485-0.127-25.6c0.369-4.115,0.879-14.44,5.283-21.927"/>
			</defs>
			<use xlink:href="#XMLID_7_"  style="overflow:visible;fill:#FFFFFF;"/>
			<clipPath id="XMLID_00000130639019005497987310000004266722446430895032_">
				<use xlink:href="#XMLID_7_"  style="overflow:visible;"/>
			</clipPath>
			<path style="opacity:0.5;clip-path:url(#XMLID_00000130639019005497987310000004266722446430895032_);fill:#C6FF00;" d="
				M126.715,208.337c0.049,7.421,0.252,16.242,0.252,16.242l-39.886-14.527l-2.158-1.482l-1.533-10.034l-7.011-2.615l-2.395-1.673
				l-1.3,1.658l6.627,6.125l-12.341-9.474l-1.49,2.95l4.951,9.444l10.085,8.198l2.543,1.688l55.155,17.774L126.715,208.337z"/>
			<use xlink:href="#XMLID_7_"  style="overflow:visible;fill:none;stroke:#263238;stroke-width:1.004;stroke-miterlimit:10;"/>
		</g>
		<g>
			<path style="fill:#FFFFFF;stroke:#263238;stroke-width:1.004;stroke-miterlimit:10;" d="M126.968,224.579l15.246,10.986
				l3.949-6.995c0,0,2.724-2.152,3.132-3.766c0.408-1.614-0.113-4.257,0.295-5.871c0.408-1.614,2.447-3.147,2.644-7.061
				c0.197-3.914,0.035-7.192,0.035-7.192s3.298-13.568,2.941-19.471c-0.357-5.904-6.046-16.326-10.612-16.556
				c-4.566-0.229-10.487,0.454-15.087,7.416c-4.601,6.962-3.66,27.283-4.378,28.555c-0.718,1.272,0.275,7.535,0.275,7.535
				s-1.354,0.913-1.436,2.544s1.678,5.643,1.678,5.643L126.968,224.579z"/>
			<g>
				<path style="fill:#C6FF00;" d="M125.516,199.41c-0.107,2.827-0.175,4.84-0.385,5.213c-0.644,1.141,0.087,6.285,0.245,7.334
					c10.91,3.386,20.428,2.986,26.518,2.039c0.168-0.628,0.299-1.315,0.34-2.125c0.197-3.914,0.035-7.192,0.035-7.192
					s0.293-1.208,0.695-3.054C141.662,202.495,131.131,200.675,125.516,199.41z"/>
				<path style="fill:#C6FF00;" d="M128.879,177.186c-1.431,2.872-2.225,7.186-2.689,11.559c11.472,4.339,21.713,4.329,28.513,3.468
					c0.379-2.648,0.616-5.189,0.506-7.005c-0.095-1.571-0.571-3.464-1.299-5.398C143.244,180.156,133.679,178.323,128.879,177.186z"
					/>
				<path style="fill:#263238;" d="M125.681,220.448l1.287,4.131l15.246,10.986l3.949-6.995c0,0,2.724-2.152,3.132-3.766
					c0.066-0.261,0.102-0.556,0.127-0.862C140.184,223.887,131.584,222.079,125.681,220.448z"/>
			</g>
		</g>
		<path style="fill:none;stroke:#263238;stroke-width:1.004;stroke-miterlimit:10;" d="M136.712,418.095
			c0,0,0.333-8.661,1.999-21.32c1.666-12.659-2.332-30.648-2.998-33.646c-0.666-2.998,0.333-9.661-0.333-11.993
			c-0.666-2.332-3.912-12.315-1.996-23.893c1.916-11.578,3.455-42.187,3.455-42.187s-4.807-3.911-6.219-8.985
			c-1.413-5.074-0.331-6.688-0.331-6.688"/>
		
			<line style="fill:none;stroke:#263238;stroke-width:1.004;stroke-miterlimit:10;" x1="138.939" y1="269.817" x2="137.089" y2="280.064"/>
	</g>
</g>
</svg>
